{"glyphs":{"!":{"ha":501,"x_min":0,"x_max":336,"o":"m 201 281 l 181 964 l 317 964 l 296 281 l 201 281 m 247 -8 q 178 8 197 -8 q 160 79 160 25 q 178 150 160 133 q 247 167 197 167 q 317 150 297 167 q 336 79 336 133 q 317 8 336 25 q 247 -8 299 -8 z "},";":{"ha":525,"x_min":0,"x_max":351,"o":"m 333 600 q 324 592 333 600 q 263 583 314 583 q 192 599 211 583 q 174 671 174 615 q 192 742 174 726 q 263 758 211 758 q 333 742 314 758 q 351 671 351 725 q 333 600 351 617 m 92 -189 q 185 1 149 -99 q 222 176 222 100 l 336 176 q 291 -10 336 93 q 189 -189 246 -112 l 92 -189 z "},"不":{"ha":1367,"x_min":0,"x_max":1290,"o":"m 825 918 q 667 665 753 785 l 738 661 l 738 -139 l 631 -139 l 631 617 q 143 151 433 363 l 65 239 q 699 918 482 521 l 138 918 l 138 1024 l 1235 1024 l 1235 918 l 825 918 m 861 643 q 1290 253 1143 421 l 1213 158 q 1009 374 1133 254 q 792 565 885 493 l 861 643 z "},"伤":{"ha":1367,"x_min":0,"x_max":1297,"o":"m 728 939 l 1297 939 l 1297 838 l 671 838 q 511 611 596 714 l 426 671 q 697 1122 597 865 l 803 1101 q 728 939 776 1033 m 476 1079 q 350 779 419 921 l 350 -137 l 251 -137 l 251 601 q 118 411 194 510 l 36 478 q 228 769 136 600 q 376 1107 321 938 l 476 1079 m 821 757 q 813 571 817 625 l 1213 571 q 1188 75 1207 397 q 1133 -61 1181 -25 q 949 -106 1086 -97 l 856 -111 l 821 -7 l 943 -1 q 1054 23 1033 3 q 1082 119 1075 43 q 1100 474 1094 269 l 807 474 q 722 126 789 251 q 460 -150 656 1 l 382 -72 q 625 167 564 60 q 703 474 686 275 l 460 474 l 460 571 l 710 571 l 715 761 l 821 757 z "},"体":{"ha":1367,"x_min":0,"x_max":1350,"o":"m 940 776 q 1118 440 1021 581 q 1350 186 1215 299 l 1276 97 q 1038 383 1129 235 q 876 726 947 532 l 876 200 l 1118 200 l 1118 104 l 876 104 l 876 -139 l 771 -139 l 771 104 l 538 104 l 540 200 l 771 200 l 771 708 q 406 110 672 399 l 328 185 l 328 -128 l 226 -128 l 226 574 q 106 393 171 478 l 28 463 q 344 1108 253 767 l 443 1078 q 328 769 394 914 l 328 188 q 711 776 603 458 l 436 776 l 436 875 l 771 875 l 771 1111 l 876 1107 l 876 875 l 1253 875 l 1253 776 l 940 776 z "},"去":{"ha":1367,"x_min":0,"x_max":1289,"o":"m 690 418 q 533 215 626 326 q 368 39 439 104 q 1000 63 489 42 q 793 294 881 213 l 869 358 q 1056 153 943 289 q 1226 -68 1169 18 l 1149 -146 q 1074 -33 1114 -87 q 349 -62 532 -49 q 197 -81 268 -68 l 164 25 q 258 68 218 39 q 407 226 317 121 q 560 418 497 331 l 74 418 l 74 521 l 629 521 l 629 801 l 168 801 l 168 900 l 629 900 l 629 1125 l 732 1122 l 732 900 l 1194 900 l 1194 801 l 732 801 l 732 521 l 1289 521 l 1289 418 l 690 418 z "},"在":{"ha":1367,"x_min":0,"x_max":1275,"o":"m 544 851 q 371 551 472 689 l 371 -135 l 268 -135 l 268 422 q 100 253 194 339 l 28 335 q 431 851 281 543 l 82 851 l 82 951 l 476 951 q 542 1136 515 1043 l 642 1111 q 588 951 618 1031 l 1263 951 l 1263 851 l 544 851 m 888 58 l 1275 58 l 1275 -40 l 415 -40 l 415 58 l 783 58 l 783 418 l 474 418 l 474 518 l 783 518 l 783 751 l 888 747 l 888 518 l 1211 518 l 1211 418 l 888 418 l 888 58 z "},"堂":{"ha":1367,"x_min":0,"x_max":1275,"o":"m 239 776 l 239 582 l 139 582 l 139 869 l 396 869 q 247 1036 336 960 l 317 1100 q 401 1018 351 1072 q 479 926 451 964 l 426 869 l 633 869 l 633 1115 l 736 1113 l 736 869 l 946 869 l 885 921 q 973 1010 924 956 q 1050 1104 1022 1064 l 1121 1046 q 965 869 1057 954 l 1229 869 l 1229 582 l 1129 582 l 1129 776 l 239 776 m 738 -14 l 1275 -14 l 1275 -103 l 92 -103 l 92 -14 l 635 -14 l 635 129 l 217 129 l 217 219 l 635 219 l 635 346 l 299 346 l 299 650 l 1071 650 l 1071 346 l 738 346 l 738 219 l 1151 219 l 1151 129 l 738 129 l 738 -14 m 396 565 l 396 433 l 969 433 l 969 565 l 396 565 z "},"处":{"ha":1367,"x_min":0,"x_max":1307,"o":"m 1001 14 q 1307 17 1172 10 l 1285 -94 q 981 -97 1151 -103 q 657 -42 793 -92 q 419 125 521 7 q 142 -143 311 -8 l 60 -68 q 356 214 243 74 q 221 538 276 342 q 131 382 174 450 l 49 438 q 317 1104 235 703 l 418 1092 q 367 896 393 982 l 703 896 l 703 788 q 486 214 649 451 q 700 64 575 108 q 1001 14 825 19 m 944 1096 l 944 69 l 836 69 l 836 1100 l 944 1096 m 286 674 q 421 304 339 444 q 603 790 557 513 l 332 790 q 286 674 311 731 m 1243 425 q 960 658 1104 576 l 1008 740 q 1289 538 1167 647 l 1243 425 z "},"天":{"ha":1367,"x_min":0,"x_max":1300,"o":"m 742 517 q 934 195 799 329 q 1300 -42 1069 61 l 1235 -149 q 876 92 1006 -31 q 686 379 747 215 q 133 -143 565 75 l 63 -46 q 614 517 556 186 l 101 517 l 101 619 l 622 619 l 622 917 l 175 917 l 175 1017 l 1183 1017 l 1183 917 l 732 917 l 732 619 l 1257 619 l 1257 517 l 742 517 z "},"女":{"ha":1367,"x_min":0,"x_max":1301,"o":"m 1301 719 l 1064 719 q 972 417 1024 539 q 838 207 919 296 q 1239 -35 1083 74 l 1182 -144 q 750 128 1032 -25 q 128 -140 567 -11 l 79 -29 q 636 189 465 74 q 271 358 424 299 q 419 719 349 519 l 75 719 l 75 825 l 456 825 q 539 1131 510 997 l 651 1106 q 574 825 619 965 l 1301 825 l 1301 719 m 731 264 q 865 451 814 343 q 954 719 917 558 l 539 719 q 414 407 479 547 q 731 264 532 364 z "},"好":{"ha":1367,"x_min":0,"x_max":1304,"o":"m 458 231 q 643 61 572 135 l 571 -39 q 401 133 513 32 q 133 -136 315 13 l 54 -60 q 324 203 243 85 q 139 350 203 304 q 222 764 192 564 l 81 764 l 81 868 l 238 868 q 264 1119 253 975 l 364 1111 q 338 868 350 968 l 586 868 l 586 769 q 458 231 544 400 m 1304 543 l 1304 440 l 992 440 l 992 44 q 953 -83 992 -49 q 801 -124 914 -118 l 728 -129 l 694 -21 l 783 -15 q 868 8 849 -11 q 888 83 888 26 l 888 440 l 590 440 l 590 543 l 888 543 l 888 708 q 1113 918 1001 799 l 647 918 l 647 1022 l 1246 1022 l 1246 919 q 992 671 1108 764 l 992 543 l 1304 543 m 247 396 q 379 297 297 363 q 493 764 454 451 l 322 764 q 247 396 296 593 z "},"寒":{"ha":1367,"x_min":0,"x_max":1317,"o":"m 235 906 l 235 788 l 139 788 l 139 989 l 646 989 q 601 1114 628 1056 l 714 1129 q 764 989 742 1064 l 1228 989 l 1228 793 l 1132 793 l 1132 906 l 235 906 m 947 333 q 1108 198 1011 263 q 1317 94 1206 133 l 1272 8 q 829 333 994 119 l 536 333 q 89 -8 376 118 l 49 78 q 419 333 285 176 l 97 333 l 97 417 l 454 417 l 454 510 l 217 510 l 217 590 l 454 590 l 454 682 l 201 682 l 201 763 l 454 763 l 454 871 l 547 867 l 547 763 l 815 763 l 815 871 l 907 867 l 907 763 l 1161 763 l 1161 682 l 907 682 l 907 590 l 1147 590 l 1147 510 l 907 510 l 907 417 l 1268 417 l 1268 333 l 947 333 m 547 682 l 547 590 l 815 590 l 815 682 l 547 682 m 547 510 l 547 417 l 815 417 l 815 510 l 547 510 m 536 253 q 890 179 682 229 l 872 90 q 519 168 676 151 l 536 253 m 376 -15 l 393 75 q 981 -43 704 28 l 963 -137 q 660 -67 842 -106 q 376 -15 478 -28 z "},"恶":{"ha":1367,"x_min":0,"x_max":1300,"o":"m 1267 517 l 1267 425 l 101 425 l 101 517 l 493 517 l 493 949 l 165 949 l 165 1043 l 1208 1043 l 1208 949 l 874 949 l 874 517 l 1267 517 m 593 949 l 593 517 l 772 517 l 772 949 l 593 949 m 253 906 q 429 636 360 769 l 353 574 q 176 851 272 732 l 253 906 m 1008 578 l 926 631 q 1022 761 969 681 q 1103 899 1075 842 l 1182 849 q 1100 706 1154 792 q 1008 578 1046 621 m 765 97 q 606 339 704 221 l 672 389 q 835 169 801 231 l 765 97 m 893 40 q 911 158 904 82 l 1008 117 q 976 -37 993 17 q 926 -93 965 -75 q 808 -114 888 -111 q 557 -114 683 -118 q 442 -77 476 -111 q 407 47 407 -43 l 407 339 l 507 333 l 507 81 q 524 8 507 28 q 590 -14 542 -11 q 800 -14 696 -21 q 867 1 847 -11 q 893 40 888 14 m 1074 336 q 1300 15 1196 188 l 1222 -54 q 1003 282 1140 107 l 1074 336 m 68 -18 q 256 314 175 111 l 338 278 q 151 -71 257 74 l 68 -18 z "},"想":{"ha":1367,"x_min":0,"x_max":1294,"o":"m 521 519 q 390 664 464 596 l 390 322 l 293 322 l 293 714 q 97 438 219 572 l 39 513 q 274 840 194 668 l 106 840 l 106 931 l 293 931 l 293 1110 l 390 1107 l 390 931 l 558 931 l 558 840 l 390 840 l 390 710 l 422 746 q 579 600 515 674 l 521 519 m 1188 1042 l 1188 358 l 607 358 l 607 1042 l 1188 1042 m 1088 958 l 706 958 l 706 840 l 1088 840 l 1088 958 m 1088 760 l 706 760 l 706 643 l 1088 643 l 1088 760 m 706 442 l 1088 442 l 1088 563 l 706 563 l 706 442 m 761 72 q 691 189 738 119 q 613 294 644 258 l 683 347 q 765 250 715 315 q 839 143 814 185 l 761 72 m 1108 292 q 1207 143 1149 240 q 1294 -15 1265 46 l 1208 -79 q 1124 93 1179 -7 q 1029 243 1069 193 l 1108 292 m 81 -33 q 228 285 163 94 l 319 257 q 168 -81 233 31 l 81 -33 m 896 32 q 917 144 904 64 l 1014 104 q 983 -39 1000 19 q 941 -94 972 -78 q 826 -114 910 -110 q 563 -114 694 -121 q 444 -79 478 -110 q 410 26 410 -49 l 410 283 l 508 279 l 508 64 q 525 -2 508 14 q 593 -21 542 -18 q 800 -21 697 -26 q 869 -7 849 -18 q 896 32 889 4 z "},"戒":{"ha":1367,"x_min":0,"x_max":1279,"o":"m 1190 215 l 1279 167 q 1231 -26 1256 44 q 1106 -125 1196 -125 q 1015 -92 1056 -125 q 931 28 974 -58 q 892 113 913 64 q 694 -93 813 14 l 629 -19 q 851 219 767 106 q 750 807 781 444 l 100 807 l 100 903 l 743 903 l 728 1129 l 829 1128 l 844 903 l 1064 903 q 939 1078 1008 999 l 1006 1129 q 1150 942 1104 1024 l 1104 903 l 1265 903 l 1265 807 l 851 807 q 925 326 874 525 q 1090 714 1018 483 l 1188 688 q 961 207 1088 392 q 1024 67 989 126 q 1103 -12 1069 -12 q 1136 3 1124 -12 q 1161 63 1149 19 q 1190 215 1179 122 m 753 365 l 613 365 l 613 -92 l 515 -92 l 515 365 l 349 365 q 302 88 343 196 q 157 -146 261 -21 l 74 -81 q 211 124 175 35 q 253 365 247 213 l 64 365 l 64 460 l 254 460 l 254 729 l 350 726 l 350 460 l 515 460 l 515 731 l 613 728 l 613 460 l 753 460 l 753 365 z "},"捞":{"ha":1367,"x_min":0,"x_max":1310,"o":"m 1082 963 l 1310 963 l 1310 872 l 1082 872 l 1082 754 l 986 754 l 986 872 l 778 872 l 778 754 l 682 754 l 682 872 l 493 872 l 493 963 l 682 963 l 682 1115 l 778 1113 l 778 963 l 986 963 l 986 1115 l 1082 1113 l 1082 963 m 465 469 q 338 418 428 453 l 338 26 q 308 -85 338 -57 q 185 -121 278 -114 l 124 -126 l 93 -28 l 161 -22 q 227 -4 211 -19 q 243 56 243 11 l 243 383 q 67 328 131 344 l 46 431 q 243 493 118 449 l 243 758 l 83 758 l 83 856 l 243 856 l 243 1111 l 338 1108 l 338 856 l 476 856 l 476 758 l 338 758 l 338 526 q 449 571 414 556 l 457 514 l 465 469 m 503 440 l 503 696 l 1268 696 l 1268 440 l 1169 440 l 1169 606 l 601 606 l 601 440 l 503 440 m 849 542 q 838 396 849 518 l 1188 396 q 1163 60 1165 76 q 1112 -61 1157 -28 q 947 -101 1067 -94 l 868 -106 l 835 -8 l 935 -3 q 1034 21 1010 1 q 1065 99 1058 40 q 1081 303 1074 172 l 828 303 q 722 51 810 164 q 451 -151 635 -61 l 396 -62 q 631 101 558 18 q 728 303 704 183 l 511 303 l 511 396 l 740 396 l 750 549 l 849 542 z "},"是":{"ha":1367,"x_min":0,"x_max":1296,"o":"m 1083 1053 l 1083 576 l 250 576 l 250 1053 l 1083 1053 m 979 968 l 354 968 l 354 858 l 979 858 l 979 968 m 354 661 l 979 661 l 979 772 l 354 772 l 354 661 m 763 -15 q 1296 -11 1028 -26 l 1271 -104 q 765 -106 1001 -115 q 506 -58 606 -99 q 333 82 406 -17 q 144 -157 271 -49 l 60 -90 q 225 98 168 0 q 311 333 282 196 l 414 319 q 375 181 396 242 q 633 0 468 35 l 633 383 l 94 383 l 94 471 l 1256 471 l 1256 383 l 736 383 l 736 239 l 1157 239 l 1157 154 l 736 154 l 736 -14 l 763 -15 z "},"最":{"ha":1367,"x_min":0,"x_max":1308,"o":"m 1104 1068 l 1104 683 l 265 683 l 265 1068 l 1104 1068 m 1006 988 l 364 988 l 364 913 l 1006 913 l 1006 988 m 364 764 l 1006 764 l 1006 840 l 364 840 l 364 764 m 60 610 l 1308 610 l 1308 528 l 646 528 l 646 96 l 725 111 l 731 28 q 646 13 679 18 l 646 -143 l 551 -143 l 551 -3 l 325 -35 q 101 -67 175 -56 l 86 21 q 150 29 106 24 l 215 36 l 215 528 l 60 528 l 60 610 m 551 428 l 551 528 l 311 528 l 311 428 l 551 428 m 1194 367 q 1021 89 1119 201 q 1289 -53 1119 8 l 1242 -133 q 960 28 1065 -61 q 724 -129 858 -65 l 675 -51 q 900 86 808 6 q 744 326 817 175 l 821 361 q 961 144 890 221 q 1097 367 1044 240 l 703 367 l 703 446 l 1194 446 l 1194 367 m 551 253 l 551 354 l 311 354 l 311 253 l 551 253 m 311 47 q 551 81 467 65 l 551 179 l 311 179 l 311 47 z "},"水":{"ha":1367,"x_min":0,"x_max":1324,"o":"m 903 535 q 1324 82 1053 278 l 1243 -6 q 928 319 1046 157 q 739 686 811 481 l 739 56 q 699 -69 739 -37 q 538 -110 660 -100 l 451 -117 l 417 -14 l 522 -6 q 615 18 596 0 q 633 97 633 36 l 633 1114 l 739 1110 l 739 926 q 853 625 788 760 q 1011 765 928 682 q 1140 911 1094 849 l 1218 831 q 1075 683 1169 771 q 903 535 981 594 m 538 800 l 538 700 q 128 -15 468 336 l 40 56 q 440 697 368 374 l 113 697 l 113 800 l 538 800 z "},"烟":{"ha":1367,"x_min":0,"x_max":1226,"o":"m 508 1042 l 1226 1042 l 1226 -137 l 1126 -137 l 1126 -53 l 607 -53 l 607 -137 l 508 -137 l 508 814 q 378 579 461 703 l 342 599 q 328 394 339 481 q 420 242 368 333 q 494 100 472 151 l 414 40 q 307 267 382 128 q 136 -137 267 82 l 44 -87 q 200 233 157 94 q 243 588 243 372 l 243 1104 l 343 1100 l 343 692 q 435 869 406 792 l 508 833 l 508 1042 m 607 47 l 1126 47 l 1126 942 l 607 942 l 607 47 m 226 518 l 132 485 q 51 878 115 668 l 140 901 q 191 709 164 829 q 226 518 218 589 m 1100 214 l 1035 143 q 868 407 971 274 q 692 133 821 264 l 624 208 q 757 381 714 293 q 808 592 800 469 q 810 606 808 600 l 650 606 l 650 701 l 813 701 q 815 899 815 779 l 910 894 q 907 701 910 857 l 1079 701 l 1079 606 l 903 606 l 901 579 q 893 508 900 544 q 1100 214 988 407 z "},"爬":{"ha":1367,"x_min":0,"x_max":1317,"o":"m 619 653 q 631 428 619 519 q 672 262 642 338 q 750 140 703 186 q 878 60 797 94 q 1063 7 960 25 q 1317 -22 1167 -11 l 1294 -125 q 1031 -91 1136 -110 q 835 -35 926 -72 q 690 53 743 1 q 599 190 638 106 q 547 385 561 274 q 532 654 532 496 l 532 964 l 447 947 l 447 -100 l 358 -100 l 358 933 q 264 919 325 928 l 264 585 q 242 288 264 425 q 197 81 219 150 q 128 -112 175 11 l 38 -64 q 143 237 110 101 q 176 589 176 372 l 176 1007 q 671 1099 464 1038 l 696 1006 l 619 985 l 619 653 m 893 167 q 775 211 811 174 q 739 340 739 249 l 739 1019 l 1215 1019 l 1215 543 l 824 543 l 824 367 q 842 287 824 308 q 915 260 861 265 q 1088 260 1001 251 q 1153 275 1135 264 q 1181 315 1172 286 q 1200 433 1199 382 l 1288 389 q 1260 260 1281 328 q 1114 167 1235 175 q 893 167 1003 158 m 936 929 l 824 929 l 824 635 l 936 635 l 936 929 m 1129 635 l 1129 929 l 1017 929 l 1017 635 l 1129 635 z "},"祸":{"ha":1367,"x_min":0,"x_max":1238,"o":"m 347 571 q 511 413 450 488 l 449 340 q 344 463 408 401 l 344 -133 l 250 -133 l 250 426 q 100 251 183 339 l 33 332 q 350 786 258 567 l 103 786 l 103 885 l 272 885 q 203 1099 246 985 l 296 1115 q 369 885 333 1018 l 451 885 l 451 781 q 347 571 407 675 m 928 532 l 1238 532 l 1238 42 q 1202 -82 1238 -50 q 1061 -121 1167 -114 l 992 -125 l 961 -28 l 1046 -22 q 1126 -1 1108 -18 q 1144 67 1144 15 l 1144 439 l 924 439 q 911 353 919 393 q 1133 153 1064 238 l 1075 67 q 886 268 1022 143 q 685 38 838 157 l 622 115 q 776 264 732 197 q 832 439 821 331 l 617 439 l 617 -124 l 524 -124 l 524 532 l 836 532 l 836 672 l 585 672 l 585 1047 l 1176 1047 l 1176 672 l 928 672 l 928 532 m 679 958 l 679 760 l 1083 760 l 1083 958 l 679 958 z "},"罪":{"ha":1367,"x_min":0,"x_max":1296,"o":"m 1197 1046 l 1197 718 l 175 718 l 175 1046 l 1197 1046 m 271 960 l 271 801 l 486 801 l 486 960 l 271 960 m 790 960 l 581 960 l 581 801 l 790 801 l 790 960 m 1100 801 l 1100 960 l 886 960 l 886 801 l 1100 801 m 1296 126 l 1296 38 l 867 38 l 867 -139 l 768 -139 l 768 690 l 867 686 l 867 576 l 1244 576 l 1244 489 l 867 489 l 867 351 l 1218 351 l 1218 265 l 867 265 l 867 126 l 1296 126 m 504 576 l 504 682 l 603 678 l 603 -133 l 504 -133 l 504 38 l 74 38 l 74 126 l 504 126 l 504 265 l 153 265 l 153 351 l 504 351 l 504 489 l 126 489 l 126 576 l 504 576 z "},"美":{"ha":1367,"x_min":0,"x_max":1303,"o":"m 1282 535 l 1282 446 l 69 446 l 69 535 l 624 535 l 624 653 l 178 653 l 178 738 l 624 738 l 624 863 l 133 863 l 133 947 l 443 947 q 328 1074 372 1033 l 399 1135 q 538 989 478 1064 l 493 947 l 781 947 q 935 1146 875 1044 l 1017 1090 q 908 947 972 1019 l 1217 947 l 1217 863 l 732 863 l 732 738 l 1174 738 l 1174 653 l 732 653 l 732 535 l 1282 535 m 742 204 q 1303 -49 883 17 l 1256 -153 q 676 135 829 -64 q 86 -150 543 -60 l 46 -46 q 593 204 497 31 l 119 204 l 119 293 l 617 293 q 621 407 621 335 l 732 403 q 729 293 732 346 l 1231 293 l 1231 204 l 742 204 z "},"胜":{"ha":1367,"x_min":0,"x_max":1306,"o":"m 988 35 l 1306 35 l 1306 -67 l 550 -67 l 550 35 l 885 35 l 885 351 l 608 351 l 608 453 l 885 453 l 885 735 l 703 735 q 631 497 672 613 l 536 528 q 661 1044 624 775 l 764 1035 q 728 838 744 911 l 885 838 l 885 1111 l 988 1108 l 988 838 l 1269 838 l 1269 735 l 988 735 l 988 453 l 1240 453 l 1240 351 l 988 351 l 988 35 m 168 524 l 168 1039 l 518 1039 l 518 24 q 488 -74 518 -47 q 374 -108 458 -100 l 318 -114 l 289 -11 l 353 -6 q 415 13 401 -1 q 428 69 428 26 l 428 313 l 256 313 q 124 -140 246 74 l 36 -90 q 113 61 88 -3 q 153 237 138 125 q 168 524 168 349 m 428 939 l 257 939 l 257 714 l 428 714 l 428 939 m 257 406 l 428 406 l 428 619 l 257 619 l 257 406 z "},"要":{"ha":1367,"x_min":0,"x_max":1290,"o":"m 483 817 l 483 954 l 121 954 l 121 1044 l 1231 1044 l 1231 954 l 868 954 l 868 817 l 1168 817 l 1168 507 l 183 507 l 183 817 l 483 817 m 772 817 l 772 954 l 578 954 l 578 817 l 772 817 m 282 732 l 282 593 l 483 593 l 483 732 l 282 732 m 578 732 l 578 593 l 772 593 l 772 732 l 578 732 m 1069 732 l 868 732 l 868 593 l 1069 593 l 1069 732 m 1017 289 q 842 82 944 158 q 1207 -33 990 36 l 1179 -135 q 738 18 988 -60 q 139 -129 557 -69 l 101 -31 q 597 63 433 8 q 278 154 407 119 q 379 289 322 207 l 61 289 l 61 372 l 432 372 q 503 504 476 449 l 608 475 q 554 372 582 419 l 1290 372 l 1290 289 l 1017 289 m 440 196 q 724 117 606 151 q 894 289 821 171 l 506 289 q 440 196 472 236 z "},"说":{"ha":1367,"x_min":0,"x_max":1317,"o":"m 1222 181 l 1317 149 q 1294 -22 1313 64 q 1251 -85 1285 -65 q 1150 -108 1218 -104 q 1024 -108 1086 -112 q 924 -76 953 -104 q 894 24 894 -49 l 894 371 l 744 371 q 707 138 739 232 q 617 -20 675 44 q 457 -153 560 -85 l 388 -69 q 536 43 486 -7 q 615 171 586 93 q 646 371 643 249 l 497 371 l 497 832 l 681 832 q 540 1051 638 928 l 621 1104 q 767 894 729 965 l 688 832 l 875 832 q 1042 1113 979 974 l 1131 1064 q 996 832 1085 965 l 1179 832 l 1179 371 l 994 371 l 994 60 q 1008 8 994 19 q 1061 -8 1021 -4 q 1133 -8 1097 -12 q 1188 6 1174 -4 q 1208 47 1201 15 q 1222 181 1219 100 m 393 850 l 313 776 q 230 907 286 829 q 133 1029 174 985 l 214 1086 q 310 971 253 1046 q 393 850 367 896 m 596 735 l 596 467 l 1081 467 l 1081 735 l 596 735 m 471 251 l 499 135 l 314 -18 q 254 -76 294 -33 l 183 0 q 225 88 225 46 l 225 563 l 58 563 l 58 664 l 324 664 l 324 118 q 404 191 343 135 q 471 251 465 247 z "},"身":{"ha":1367,"x_min":0,"x_max":1304,"o":"m 1304 525 q 1083 314 1218 413 l 1083 58 q 1036 -78 1083 -40 q 844 -121 989 -115 l 747 -125 l 706 -22 l 832 -17 q 953 7 926 -14 q 979 94 979 28 l 979 243 q 90 -104 651 39 l 46 -3 q 856 276 544 104 l 93 276 l 93 368 l 274 368 l 274 985 l 531 985 q 597 1129 572 1060 l 713 1108 q 653 985 697 1071 l 1083 985 l 1083 432 q 1240 590 1174 507 l 1304 525 m 979 894 l 378 894 l 378 779 l 979 779 l 979 894 m 979 574 l 979 690 l 378 690 l 378 574 l 979 574 m 378 485 l 378 368 l 979 368 l 979 485 l 378 485 z "},"都":{"ha":1367,"x_min":0,"x_max":1278,"o":"m 786 1000 q 608 696 703 822 l 790 696 l 790 607 l 535 607 q 396 472 472 539 l 685 472 l 685 -78 l 214 -78 l 214 333 q 99 257 190 317 l 35 340 q 401 607 260 474 l 88 607 l 88 696 l 336 696 l 336 867 l 131 867 l 131 953 l 336 953 l 336 1111 l 426 1107 l 426 953 l 599 953 l 599 867 l 426 867 l 426 696 l 486 696 q 688 1026 606 833 l 786 1000 m 1146 579 q 1249 399 1221 475 q 1278 240 1278 324 q 1235 85 1278 128 q 1085 31 1192 42 l 1017 24 l 989 121 l 1071 126 q 1157 158 1133 132 q 1181 254 1181 185 q 1043 561 1181 394 q 1153 946 1110 733 l 935 946 l 935 -143 l 838 -143 l 838 1040 l 1247 1040 l 1247 938 q 1146 579 1207 739 m 597 239 l 597 383 l 303 383 l 303 239 l 597 239 m 303 10 l 597 10 l 597 156 l 303 156 l 303 10 z "},"酒":{"ha":1367,"x_min":0,"x_max":1299,"o":"m 96 1021 l 151 1100 q 278 1011 200 1071 q 397 911 357 951 l 339 817 q 223 927 300 864 q 96 1021 146 990 m 1299 953 l 978 953 l 978 786 l 1225 786 l 1225 -126 l 1132 -126 l 1132 -58 l 528 -58 l 528 -126 l 433 -126 l 433 786 l 668 786 l 668 953 l 393 953 l 393 1047 l 1299 1047 l 1299 953 m 888 786 l 888 953 l 760 953 l 760 786 l 888 786 m 117 796 q 247 700 167 765 q 369 590 326 635 l 307 494 q 190 610 268 543 q 57 717 113 678 l 117 796 m 668 692 l 528 692 l 528 267 l 1132 267 l 1132 389 l 1010 389 q 915 415 942 389 q 888 522 888 442 l 888 692 l 760 692 q 725 470 758 540 q 594 324 692 400 l 536 393 q 622 469 596 436 q 657 549 647 501 q 668 692 667 597 m 1132 692 l 978 692 l 978 551 q 991 493 978 508 q 1042 478 1004 478 l 1132 478 l 1132 692 m 244 406 l 307 390 l 342 381 q 278 128 325 283 q 192 -118 231 -28 l 93 -90 q 180 155 132 -1 q 244 406 228 311 m 528 33 l 1132 33 l 1132 175 l 528 175 l 528 33 z "},"金":{"ha":1367,"x_min":0,"x_max":1329,"o":"m 736 1113 q 986 876 833 983 q 1329 704 1139 768 l 1274 607 q 944 785 1104 674 q 686 1017 783 896 q 101 599 503 782 l 40 689 q 639 1113 451 857 l 736 1113 m 738 343 l 738 15 l 1269 15 l 1269 -82 l 100 -82 l 100 15 l 635 15 l 635 343 l 174 343 l 174 442 l 635 442 l 635 610 l 328 610 l 328 707 l 1040 707 l 1040 610 l 738 610 l 738 442 l 1207 442 l 1207 343 l 738 343 m 854 104 q 950 210 893 139 q 1039 332 1007 282 l 1118 272 q 1028 149 1089 224 q 925 35 968 75 l 854 104 m 511 103 l 438 29 q 352 153 410 81 q 254 264 294 225 l 322 328 q 421 221 361 292 q 511 103 481 150 z "},"钱":{"ha":1367,"x_min":0,"x_max":1293,"o":"m 354 64 q 442 117 375 76 q 524 164 510 157 l 538 61 q 340 -46 449 17 q 260 -99 314 -61 l 215 -11 q 260 58 260 18 l 260 338 l 60 338 l 60 431 l 260 431 l 260 608 l 143 608 l 143 686 q 101 633 115 650 l 28 693 q 175 903 106 786 q 281 1132 244 1021 l 374 1111 q 306 947 349 1035 l 571 947 l 571 854 l 256 854 q 156 703 210 776 l 528 703 l 528 608 l 354 608 l 354 431 l 547 431 l 547 338 l 354 338 l 354 64 m 1163 53 q 1210 194 1194 129 l 1289 135 q 1226 -33 1261 32 q 1089 -118 1182 -118 q 992 -86 1036 -118 q 893 31 949 -54 q 854 101 875 58 q 589 -32 733 26 l 540 61 q 818 194 693 119 q 754 465 778 313 l 553 439 l 546 531 l 740 556 q 722 724 732 618 l 561 706 l 553 796 l 715 814 l 715 822 l 699 1119 l 794 1124 q 811 825 803 956 l 1244 875 l 1251 785 l 819 735 q 838 568 824 667 l 1283 625 l 1293 535 l 851 478 q 904 249 872 349 q 1150 475 1044 346 l 1213 411 q 938 157 1086 260 q 979 81 957 117 q 1089 -8 1038 -8 q 1133 6 1117 -8 q 1163 53 1149 19 m 1063 869 q 986 961 1036 908 q 900 1043 936 1014 l 958 1101 q 1046 1026 993 1076 q 1125 940 1099 975 l 1063 869 z "},"高":{"ha":1367,"x_min":0,"x_max":1293,"o":"m 749 994 l 1293 994 l 1293 911 l 79 911 l 79 994 l 647 994 q 610 1111 626 1065 l 706 1128 q 749 994 717 1097 m 297 811 l 1075 811 l 1075 557 l 297 557 l 297 811 m 971 631 l 971 738 l 400 738 l 400 631 l 971 631 m 169 -126 l 169 465 l 1201 465 l 1201 38 q 1174 -81 1201 -53 q 1054 -118 1146 -110 l 953 -128 l 921 -32 l 1019 -24 q 1084 -8 1071 -19 q 1097 49 1097 4 l 1097 385 l 272 385 l 272 -126 l 169 -126 m 943 294 l 943 29 l 429 29 l 429 294 l 943 294 m 843 107 l 843 217 l 529 217 l 529 107 l 843 107 z "},"，":{"ha":1367,"x_min":0,"x_max":435,"o":"m 189 -189 q 283 0 247 -100 q 319 176 319 100 l 435 176 q 390 -10 435 93 q 288 -189 344 -112 l 189 -189 z "}}}
